<svg viewBox="0 0 32 32" xmlns="http://www.w3.org/2000/svg" xmlns:xlink="http://www.w3.org/1999/xlink" width="32.000000" height="32.000000" fill="none" customFrame="#000000">
	<g id="cos_logo_favicon">
		<rect id="tray" width="32.000000" height="32.000000" x="0.000000" y="0.000000" rx="12.000000" fill="rgb(0,0,0)" />
		<path id="curve" d="M16.2409 17.2295C17.2414 17.9705 18.7422 17.4765 17.3665 16.1179C13.2395 12.1656 14.1149 0 8.98741 0C3.85991 0 4.73533 12.1656 0.608321 16.1179C-0.892408 17.6 0.733375 17.9705 1.73387 17.2295C5.61077 14.6358 5.36064 7.84281 8.98741 7.84281C12.6142 7.84281 12.3641 14.6358 16.2409 17.2295Z" fill="rgb(255,255,255)" fill-rule="evenodd" transform="matrix(-1,0,0,-1,24.96,25.6)" />
		<path id="line" d="M22.5162 17C22.6375 16.3363 22.7591 15.6681 22.8823 15L28.2857 15C28.6802 15 29 15.4477 29 16C29 16.5523 28.6802 17 28.2857 17L22.5162 17ZM9.04338 15C9.16667 15.6681 9.28817 16.3363 9.40957 17L3.71429 17C3.3198 17 3 16.5523 3 16C3 15.4477 3.3198 15 3.71429 15L9.04338 15ZM15.9727 16.5824C16.8916 16.5824 17.5607 15.9711 18.1112 15L13.8341 15C14.3846 15.9711 15.0538 16.5824 15.9727 16.5824Z" fill="rgb(255,255,255)" fill-rule="evenodd" />
	</g>
</svg>
